<?xml version="1.0" encoding="UTF-8" standalone="no"?>
<!-- Created with Inkscape (http://www.inkscape.org/) -->

<svg
   xmlns:dc="http://purl.org/dc/elements/1.1/"
   xmlns:cc="http://creativecommons.org/ns#"
   xmlns:rdf="http://www.w3.org/1999/02/22-rdf-syntax-ns#"
   xmlns:svg="http://www.w3.org/2000/svg"
   xmlns="http://www.w3.org/2000/svg"
   xmlns:sodipodi="http://sodipodi.sourceforge.net/DTD/sodipodi-0.dtd"
   xmlns:inkscape="http://www.inkscape.org/namespaces/inkscape"
   width="744.09448819"
   height="1052.3622047"
   id="svg2"
   version="1.1"
   inkscape:version="0.48.3.1 r9886"
   sodipodi:docname="morestuff.svg">
  <defs
     id="defs4" />
  <sodipodi:namedview
     id="base"
     pagecolor="#ffffff"
     bordercolor="#666666"
     borderopacity="1.0"
     inkscape:pageopacity="0.0"
     inkscape:pageshadow="2"
     inkscape:zoom="2.8"
     inkscape:cx="195.38613"
     inkscape:cy="740.31496"
     inkscape:document-units="px"
     inkscape:current-layer="layer1"
     showgrid="true"
     inkscape:window-width="1317"
     inkscape:window-height="744"
     inkscape:window-x="49"
     inkscape:window-y="24"
     inkscape:window-maximized="1">
    <inkscape:grid
       type="xygrid"
       id="grid2994"
       empspacing="8"
       visible="true"
       enabled="true"
       snapvisiblegridlinesonly="true"
       units="in"
       spacingx="0.125in"
       spacingy="0.125in" />
  </sodipodi:namedview>
  <metadata
     id="metadata7">
    <rdf:RDF>
      <cc:Work
         rdf:about="">
        <dc:format>image/svg+xml</dc:format>
        <dc:type
           rdf:resource="http://purl.org/dc/dcmitype/StillImage" />
        <dc:title />
      </cc:Work>
    </rdf:RDF>
  </metadata>
  <g
     inkscape:label="Layer 1"
     inkscape:groupmode="layer"
     id="layer1">
    <path
       style="fill:none;stroke:#000000;stroke-width:1px;stroke-linecap:butt;stroke-linejoin:miter;stroke-opacity:1"
       d="m 47.47717,82.615739 c 0,-9.266761 6.270352,-20.960155 20.203051,-20.708127 13.874647,0.250979 18.784554,8.584005 18.94036,20.708127 0.178816,13.914703 -12.374369,20.203051 -21.465742,20.203051 -9.091373,0 -17.677669,-10.93629 -17.677669,-20.203051 z"
       id="path2985"
       inkscape:connector-curvature="0"
       sodipodi:nodetypes="zsssz" />
    <path
       style="fill:none;stroke:#000000;stroke-width:1px;stroke-linecap:butt;stroke-linejoin:miter;stroke-opacity:1"
       d="m 104.42358,95.749726 c 0,-9.266764 31.7767,-33.839603 45.7094,-33.587575 13.87465,0.250979 48.05631,20.45361 48.23479,32.577423 0.17882,12.146936 -20.70804,7.635196 -45.96195,7.576146 -31.31532,-0.0732 -47.98224,2.70077 -47.98224,-6.565994 z"
       id="path2985-6"
       inkscape:connector-curvature="0"
       sodipodi:nodetypes="zsssz" />
    <path
       style="fill:none;stroke:#000000;stroke-width:1px;stroke-linecap:butt;stroke-linejoin:miter;stroke-opacity:1"
       d="m 257.58832,114.88659 c 0,-9.26677 57.02824,-51.770329 88.64089,-51.770329 38.6242,0 80.38119,35.605897 80.55967,47.729709 0.17882,12.14694 -25.75413,-13.131984 -80.81221,-13.131984 -48.48983,0 -88.38835,26.439364 -88.38835,17.172604 z"
       id="path2985-6-2"
       inkscape:connector-curvature="0"
       sodipodi:nodetypes="zsssz" />
    <path
       style="fill:none;stroke:#000000;stroke-width:1px;stroke-linecap:butt;stroke-linejoin:miter;stroke-opacity:1"
       d="m 492.70133,77.728154 c 0,-9.266765 9.55335,-21.212697 23.48605,-20.960669 13.87465,0.250979 48.05631,20.453609 48.23479,32.577424 0.17882,12.146931 -20.70797,7.57614 -45.96195,7.57614 -19.19363,0 -25.75889,-9.926135 -25.75889,-19.192895 z"
       id="path2985-6-2-8"
       inkscape:connector-curvature="0"
       sodipodi:nodetypes="zsssz" />
    <path
       style="fill:none;stroke:#000000;stroke-width:1px;stroke-linecap:butt;stroke-linejoin:miter;stroke-opacity:1"
       d="m 90,242.36218 0,90 270,0"
       id="path2998"
       inkscape:connector-curvature="0" />
    <path
       style="fill:none;stroke:#000000;stroke-width:1px;stroke-linecap:butt;stroke-linejoin:miter;stroke-opacity:1"
       d="m 360,332.36218 0,22.5"
       id="path3000"
       inkscape:connector-curvature="0"
       sodipodi:nodetypes="cc" />
    <path
       style="fill:none;stroke:#000000;stroke-width:1px;stroke-linecap:butt;stroke-linejoin:miter;stroke-opacity:1"
       d="m 90,332.36218 0,22.5"
       id="path3002"
       inkscape:connector-curvature="0" />
    <path
       style="fill:none;stroke:#000000;stroke-width:1px;stroke-linecap:butt;stroke-linejoin:miter;stroke-opacity:1"
       d="m 90,332.36218 c 0,-11.25 22.5,-22.5 56.25,-22.5 33.75,0 33.75,0 67.5,0 22.5,0 56.25,-11.25 78.75,-11.25 68.43108,-1e-5 67.5,11.25 67.5,33.75"
       id="path3004"
       inkscape:connector-curvature="0"
       sodipodi:nodetypes="cscsc" />
    <text
       xml:space="preserve"
       style="font-size:40px;font-style:normal;font-weight:normal;line-height:125%;letter-spacing:0px;word-spacing:0px;fill:#000000;fill-opacity:1;stroke:none;font-family:Sans"
       x="84.75"
       y="370.11218"
       id="text3006"
       sodipodi:linespacing="125%"><tspan
         sodipodi:role="line"
         id="tspan3008"
         x="84.75"
         y="370.11218"
         style="font-size:16px">0</tspan></text>
    <text
       xml:space="preserve"
       style="font-size:40px;font-style:normal;font-weight:normal;line-height:125%;letter-spacing:0px;word-spacing:0px;fill:#000000;fill-opacity:1;stroke:none;font-family:Sans"
       x="355.24991"
       y="372.82651"
       id="text3006-0"
       sodipodi:linespacing="125%"><tspan
         sodipodi:role="line"
         id="tspan3008-3"
         x="355.24991"
         y="372.82651"
         style="font-size:16px">1</tspan></text>
  </g>
</svg>
